<svg xmlns="http://www.w3.org/2000/svg" width="320" height="320" viewBox="0 0 320 320" fill="none">
  <defs>
    <linearGradient id="brand" x1="0%" y1="0%" x2="100%" y2="100%">
      <stop offset="0%" stop-color="#6A63EF"/>
      <stop offset="100%" stop-color="#0096FF"/>
    </linearGradient>
    <linearGradient id="brand-soft" x1="0%" y1="0%" x2="100%" y2="100%">
      <stop offset="0%" stop-color="#6A63EF" stop-opacity="0.1"/>
      <stop offset="100%" stop-color="#0096FF" stop-opacity="0.1"/>
    </linearGradient>
    <linearGradient id="hex-stroke-outer" x1="0%" y1="0%" x2="100%" y2="100%">
      <stop offset="0%" stop-color="#6A63EF" stop-opacity="0.2"/>
      <stop offset="100%" stop-color="#0096FF" stop-opacity="0.2"/>
    </linearGradient>
  </defs>

  <polygon points="160,-15 312,75 312,245 160,335 8,245 8,75" fill="none" stroke="url(#hex-stroke-outer)" stroke-width="1.5" stroke-dasharray="8 5"/>

  <g opacity="0.25">
    <polyline points="160,-30 160,-15 148,-9" fill="none" stroke="#6A63EF" stroke-width="1.8" stroke-linecap="round" stroke-linejoin="round"/>
    <polyline points="327,69 312,75 312,90" fill="none" stroke="#0096FF" stroke-width="1.8" stroke-linecap="round" stroke-linejoin="round"/>
    <polyline points="312,230 312,245 327,251" fill="none" stroke="#6A63EF" stroke-width="1.8" stroke-linecap="round" stroke-linejoin="round"/>
    <polyline points="160,350 160,335 148,329" fill="none" stroke="#0096FF" stroke-width="1.8" stroke-linecap="round" stroke-linejoin="round"/>
    <polyline points="-7,251 8,245 8,230" fill="none" stroke="#6A63EF" stroke-width="1.8" stroke-linecap="round" stroke-linejoin="round"/>
    <polyline points="8,90 8,75 -7,69" fill="none" stroke="#0096FF" stroke-width="1.8" stroke-linecap="round" stroke-linejoin="round"/>
  </g>

  <polygon points="160,5 295,82 295,238 160,315 25,238 25,82" fill="url(#brand-soft)"/>
  <polygon points="160,45 255,102 255,218 160,275 65,218 65,102" fill="url(#brand-soft)"/>

  <circle cx="160" cy="5" r="2" fill="#6A63EF" opacity="0.2"/>
  <circle cx="295" cy="82" r="2" fill="#0096FF" opacity="0.2"/>
  <circle cx="295" cy="238" r="2" fill="#6A63EF" opacity="0.2"/>
  <circle cx="160" cy="315" r="2" fill="#0096FF" opacity="0.2"/>
  <circle cx="25" cy="238" r="2" fill="#6A63EF" opacity="0.2"/>
  <circle cx="25" cy="82" r="2" fill="#0096FF" opacity="0.2"/>

  <circle cx="160" cy="45" r="2.5" fill="#6A63EF" opacity="0.25"/>
  <circle cx="255" cy="102" r="2.5" fill="#0096FF" opacity="0.25"/>
  <circle cx="255" cy="218" r="2.5" fill="#6A63EF" opacity="0.25"/>
  <circle cx="160" cy="275" r="2.5" fill="#0096FF" opacity="0.25"/>
  <circle cx="65" cy="218" r="2.5" fill="#6A63EF" opacity="0.25"/>
  <circle cx="65" cy="102" r="2.5" fill="#0096FF" opacity="0.25"/>

  <line x1="160" y1="160" x2="82" y2="82" stroke="#6A63EF" stroke-width="1.5" opacity="0.15"/>
  <line x1="160" y1="160" x2="238" y2="82" stroke="#0096FF" stroke-width="1.5" opacity="0.15"/>
  <line x1="160" y1="160" x2="82" y2="238" stroke="#0096FF" stroke-width="1.5" opacity="0.15"/>
  <line x1="160" y1="160" x2="238" y2="238" stroke="#6A63EF" stroke-width="1.5" opacity="0.15"/>

  <circle cx="160" cy="160" r="52" fill="#6A63EF" opacity="0.08"/>
  <circle cx="160" cy="160" r="44" fill="#6A63EF" opacity="0.1"/>
  <circle cx="160" cy="160" r="36" fill="url(#brand)"/>
  <circle cx="160" cy="160" r="33" fill="url(#brand)" stroke="white" stroke-width="1.5" stroke-opacity="0.3"/>
  <text x="160" y="170" text-anchor="middle" fill="white" font-size="30" font-weight="700" font-family="system-ui, sans-serif">&#x20B1;</text>

  <line x1="160" y1="118" x2="160" y2="110" stroke="#6A63EF" stroke-width="2" stroke-linecap="round" opacity="0.35"/>
  <line x1="188" y1="132" x2="194" y2="126" stroke="#0096FF" stroke-width="2" stroke-linecap="round" opacity="0.3"/>
  <line x1="132" y1="132" x2="126" y2="126" stroke="#6A63EF" stroke-width="2" stroke-linecap="round" opacity="0.3"/>
  <line x1="196" y1="160" x2="204" y2="160" stroke="#0096FF" stroke-width="2" stroke-linecap="round" opacity="0.25"/>

  <g transform="translate(52, 52)">
    <rect x="0" y="0" width="60" height="60" rx="14" fill="white"/>
    <rect x="0" y="0" width="60" height="60" rx="14" fill="none" stroke="url(#brand)" stroke-width="1.5" stroke-opacity="0.3"/>
    <rect x="13" y="16" width="34" height="22" rx="4" fill="url(#brand)" opacity="0.85"/>
    <line x1="13" y1="24" x2="47" y2="24" stroke="white" stroke-width="1.5" stroke-opacity="0.4"/>
    <rect x="17" y="30" width="10" height="4" rx="1" fill="white" opacity="0.4"/>
    <circle cx="40" cy="33" r="3.5" fill="white" opacity="0.25"/>
    <circle cx="44" cy="33" r="3.5" fill="white" opacity="0.15"/>
  </g>

  <g transform="translate(208, 52)">
    <rect x="0" y="0" width="60" height="60" rx="14" fill="white"/>
    <rect x="0" y="0" width="60" height="60" rx="14" fill="none" stroke="url(#brand)" stroke-width="1.5" stroke-opacity="0.3"/>
    <rect x="20" y="12" width="20" height="32" rx="4" fill="url(#brand)" opacity="0.85"/>
    <rect x="23" y="16" width="14" height="20" rx="1.5" fill="white" opacity="0.3"/>
    <circle cx="30" cy="40" r="2" fill="white" opacity="0.4"/>
    <path d="M16 22 Q13 26 16 30" fill="none" stroke="#6A63EF" stroke-width="1.5" stroke-linecap="round" opacity="0.4"/>
    <path d="M12 20 Q8 26 12 32" fill="none" stroke="#6A63EF" stroke-width="1.5" stroke-linecap="round" opacity="0.25"/>
  </g>

  <g transform="translate(52, 208)">
    <rect x="0" y="0" width="60" height="60" rx="14" fill="white"/>
    <rect x="0" y="0" width="60" height="60" rx="14" fill="none" stroke="url(#brand)" stroke-width="1.5" stroke-opacity="0.3"/>
    <rect x="14" y="14" width="12" height="12" rx="2" fill="url(#brand)" opacity="0.8"/>
    <rect x="17" y="17" width="6" height="6" rx="1" fill="white" opacity="0.5"/>
    <rect x="34" y="14" width="12" height="12" rx="2" fill="url(#brand)" opacity="0.8"/>
    <rect x="37" y="17" width="6" height="6" rx="1" fill="white" opacity="0.5"/>
    <rect x="14" y="34" width="12" height="12" rx="2" fill="url(#brand)" opacity="0.8"/>
    <rect x="17" y="37" width="6" height="6" rx="1" fill="white" opacity="0.5"/>
    <rect x="34" y="34" width="5" height="5" rx="1" fill="url(#brand)" opacity="0.5"/>
    <rect x="41" y="34" width="5" height="5" rx="1" fill="url(#brand)" opacity="0.35"/>
    <rect x="34" y="41" width="5" height="5" rx="1" fill="url(#brand)" opacity="0.35"/>
    <rect x="41" y="41" width="5" height="5" rx="1" fill="url(#brand)" opacity="0.5"/>
  </g>

  <g transform="translate(208, 208)">
    <rect x="0" y="0" width="60" height="60" rx="14" fill="white"/>
    <rect x="0" y="0" width="60" height="60" rx="14" fill="none" stroke="url(#brand)" stroke-width="1.5" stroke-opacity="0.3"/>
    <path d="M30 12 L44 19 L44 30 C44 39 38 46 30 49 C22 46 16 39 16 30 L16 19 Z" fill="url(#brand)" opacity="0.85"/>
    <polyline points="23,30 28,35 37,26" fill="none" stroke="white" stroke-width="2.5" stroke-linecap="round" stroke-linejoin="round"/>
  </g>

  <circle cx="115" cy="115" r="3" fill="#6A63EF" opacity="0.3"/>
  <circle cx="205" cy="115" r="3" fill="#0096FF" opacity="0.3"/>
  <circle cx="115" cy="205" r="3" fill="#0096FF" opacity="0.3"/>
  <circle cx="205" cy="205" r="3" fill="#6A63EF" opacity="0.3"/>
</svg>
